<?xml version="1.0" standalone="no"?><!DOCTYPE svg PUBLIC "-//W3C//DTD SVG 1.1//EN" "http://www.w3.org/Graphics/SVG/1.1/DTD/svg11.dtd">
<svg t="1649545378155" class="icon" viewBox="0 0 1024 1024" version="1.1"
    xmlns="http://www.w3.org/2000/svg" p-id="2276" data-darkreader-inline-fill=""
    xmlns:xlink="http://www.w3.org/1999/xlink" width="200" height="200">
    <defs>
        <style type="text/css"></style>
    </defs>
    <path d="M625.941333 526.528c-3.797333-4.373333-6.4-8.704-9.194666-12.885333-1.173333-1.728-3.136-2.602667-4.288-4.309334-3.562667-5.226667-7.168-10.432-9.706667-16.256-0.661333-1.493333-1.514667-2.773333-2.88-3.754666-1.152-0.853333-1.898667-2.026667-2.432-3.456-0.874667-2.304-2.432-4.224-4.437333-5.738667-2.112-1.6-4.245333-3.178667-5.098667-5.845333-0.277333-0.896-0.938667-1.344-1.642667-1.856-1.6-1.152-3.072-2.432-3.733333-4.501334-1.962667 2.218667-3.157333 5.013333-6.250667 5.866667-0.533333 0.149333-0.917333 0.981333-1.28 1.536-7.552 11.626667-17.6 20.778667-28.672 28.906667-6.805333 4.992-13.525333 10.112-20.266666 15.189333-0.682667 0.512-1.557333 0.896-1.792 1.770667-0.810667 3.157333-3.242667 4.885333-5.696 6.634666-8.192 5.802667-16.341333 11.669333-25.024 16.768-3.136 1.856-6.016 4.074667-9.344 5.717334-5.589333 2.773333-11.861333 0.917333-14.698667-4.693334-1.365333-2.709333-3.072-5.248-3.008-8.469333 0.021333-1.045333 0.32-1.898667 1.173333-2.389333 2.026667-1.152 3.050667-3.029333 4.138667-4.992 1.344-2.453333 4.117333-3.456 6.165333-5.226667 0.512-0.448 1.088-0.746667 1.429334-1.365333 2.581333-4.586667 6.058667-8.512 9.237333-12.672 5.504-7.189333 11.498667-13.994667 17.130667-21.098667 5.632-7.104 12.394667-13.290667 18.453333-20.053333 5.12-5.738667 10.517333-11.306667 14.485333-17.984 1.301333-2.176 3.157333-3.818667 5.034667-5.376 1.152-0.96 2.026667-1.877333 2.624-3.242667 1.706667-3.925333 4.501333-6.826667 8.298667-8.853333 2.816-1.514667 3.882667-4.736 2.88-8.533334-2.986667-11.370667-7.274667-22.144-13.568-32.149333-3.712-5.888-8.213333-11.050667-12.992-16.042667-0.938667-0.981333-2.069333-0.128-3.136-0.533333-2.133333-0.810667-4.352-0.618667-6.549334-0.064-12.650667 3.2-25.365333 6.08-37.354666 11.477333-4.842667 2.176-10.026667 2.709333-15.274667 1.621334-3.050667-0.64-6.058667-1.152-8.042667-4.181334-1.066667-1.642667-3.114667-2.624-4.544-4.053333-3.818667-3.882667-3.050667-8.768-2.730666-13.504 0.042667-0.64 0.704-1.066667 1.429333-1.301333 12.949333-3.989333 25.365333-9.557333 38.378667-13.376 3.52-1.024 6.954667-2.325333 10.432-3.456 2.24-0.725333 4.309333-1.685333 5.674666-3.690667 0.896-1.322667 2.538667-1.194667 3.733334-1.984 1.109333-0.746667 1.365333-1.130667 0.853333-2.432-5.354667-13.824-10.645333-27.690667-15.936-41.536-3.946667-10.304-5.930667-21.162667-9.002667-31.722667-3.242667-11.136-4.629333-22.698667-7.637333-33.877333-2.048-7.637333-4.394667-15.210667-6.165333-22.933333-0.917333-3.989333-1.514667-8.149333-0.533334-12.330667 0.256-1.088 0.661333-1.557333 1.792-1.706667 5.738667-0.725333 11.370667-0.469333 17.002667 0.96 12.224 3.093333 18.922667 11.882667 23.573333 22.698667 3.456 8.064 5.333333 16.576 5.312 25.386667-0.021333 13.077333 3.392 25.450667 7.317334 37.738666 3.328 10.389333 7.082667 20.650667 9.770666 31.232 1.28 5.056 4.544 8.448 8.682667 11.221334 0.597333 0.405333 1.024 0.32 1.642667 0.149333 3.349333-0.981333 6.762667-1.898667 9.792-3.648 4.928-2.837333 10.282667-4.565333 15.701333-6.08 9.685333-2.730667 19.093333-6.336 28.586667-9.6 14.549333-5.013333 29.205333-3.989333 43.818666-0.085333 1.984 0.533333 3.797333 1.493333 5.504 2.666666 5.696 3.882667 5.952 9.578667 0.490667 13.909334-4.394667 3.477333-9.472 5.738667-14.869333 7.210666-6.570667 1.792-13.141333 3.584-19.584 5.888-7.424 2.666667-14.378667 6.186667-21.290667 9.941334-4.288 2.325333-8.597333 4.650667-13.290667 6.165333-3.306667 1.088-6.570667 2.261333-9.28 4.693333-1.450667 1.301333-3.52 1.642667-5.482666 1.856-1.216 0.128-2.325333 0.533333-3.349334 1.173334-1.642667 1.024-2.090667 2.24-1.386666 4.266666 2.794667 8.042667 7.722667 14.890667 11.690666 22.272a15.68 15.68 0 0 0 4.629334 5.354667c0.426667 0.32 0.768 1.109333 1.472 0.533333 1.834667-1.536 4.48-1.898667 5.653333-4.437333 1.344-2.965333 4.074667-4.928 6.250667-7.210667 3.925333-4.138667 6.997333-9.024 11.178666-12.842666 2.837333-2.581333 5.653333-4.970667 7.274667-8.533334 0.234667-0.533333 1.002667-0.896 1.6-1.216 9.258667-5.12 19.2-7.509333 29.738667-6.912 9.173333 0.533333 17.664 9.258667 18.474666 18.410667 0.490667 5.504-2.048 9.664-5.696 13.418667-4.949333 5.098667-10.346667 9.685333-15.893333 14.08-6.442667 5.077333-11.648 11.221333-16.106667 18.069333-3.434667 5.269333-6.229333 10.965333-10.773333 15.509333-1.493333 1.493333-2.176 3.776-3.2 5.717334a1.898667 1.898667 0 0 0 0.021333 1.728c2.24 4.565333 4.672 9.066667 7.850667 13.013333 4.288 5.354667 7.872 11.136 11.456 16.938667 14.784 23.893333 32.064 45.653333 54.976 62.378666 3.797333 2.773333 7.637333 5.44 11.605333 7.978667 5.845333 3.733333 11.242667 1.386667 13.12-5.333333 2.197333-7.808 3.754667-15.744 5.290667-23.701334 0.682667-3.52 1.813333-6.933333 3.221333-10.24 4.266667-10.069333 11.541333-9.642667 18.688-2.837333 2.965333 2.816 4.138667 6.826667 5.248 10.688 2.837333 9.877333 4.544 19.968 4.650667 30.250667 0.128 9.728 0.512 19.434667 1.322667 29.141333 0.896 10.901333-3.605333 18.965333-12.992 24.469333-1.813333 1.066667-3.584 1.28-5.610667 0.853334-8.32-1.706667-16.298667-4.330667-23.850667-8.256-7.658667-3.968-15.082667-8.32-22.528-12.650667-4.714667-2.752-9.493333-5.397333-14.528-7.509333-2.474667-1.024-4.714667-2.325333-6.378666-4.522667-0.832-1.109333-2.026667-2.069333-3.392-2.154667-2.602667-0.149333-4.16-1.6-5.525334-3.861333-1.194667 2.176-0.746667 4.629333-2.218666 6.528-1.664 2.154667-3.306667 3.84-6.165334 4.394667-4.394667 0.853333-8.746667 1.984-13.205333 2.602666-1.194667 0.170667-2.368 0.298667-3.541333 0.042667-1.408-0.298667-2.624-0.298667-3.754667 0.853333-0.490667 0.490667-1.408 0.96-2.048 0.853334-3.690667-0.576-6.741333 2.069333-10.389333 2.005333 0.170667 0.085333 0.341333 0.213333 0.512 0.234667 2.218667 0.298667 4.650667-0.746667 6.677333 0.789333 3.754667 2.837333 7.018667 6.144 8.938667 10.538667 0.618667 1.429333 0.170667 2.837333-0.512 4.16-11.093333 21.397333-18.048 44.16-21.866667 67.861333-2.666667 16.576-3.2 33.258667-0.554667 49.962667 1.194667 7.509333 1.152 15.125333 1.792 22.698666 1.045333 12.458667 6.016 23.189333 14.464 32.298667 8.490667 9.173333 18.410667 16.490667 29.781334 21.738667 8.704 4.032 18.048 5.696 27.413333 6.976 29.248 3.989333 58.496 7.893333 88.064 8.597333 7.381333 0.170667 14.677333-0.384 21.802667-2.282667 9.813333-2.602667 19.456-5.738667 28.992-9.173333 8.469333-3.050667 13.632-9.344 15.296-17.834667 4.266667-21.930667 9.941333-43.541333 14.208-65.450666 1.386667-7.104 2.261333-14.314667 4.288-21.290667 0.725333-2.474667 1.770667-4.8 3.264-6.912 2.026667-2.858667 3.605333-3.349333 7.061333-2.517333 4.373333 1.066667 6.592 4.330667 8.341333 8.042666 2.965333 6.272 5.056 12.842667 6.4 19.648 2.538667 12.821333 3.349333 25.877333 5.098667 38.805334 1.258667 9.301333 1.877333 18.666667 2.453333 28.032 0.277333 4.544-0.085333 9.045333-0.64 13.525333-0.469333 3.776-0.789333 7.573333-1.066666 11.370667-0.256 3.328-0.768 6.954667-2.816 9.941333-0.554667 0.789333-1.002667 1.642667-1.130667 2.56-0.874667 7.317333-6.293333 11.072-11.648 14.741333-9.237333 6.314667-19.562667 9.813333-30.656 11.370667-11.818667 1.664-23.381333 5.034667-35.328 5.653333-14.570667 0.768-29.034667 2.944-43.584 3.754667-11.008 0.597333-21.973333-0.832-32.896-2.112-22.186667-2.602667-43.178667-9.642667-64.170667-16.810667-12.032-4.117333-24.042667-8.149333-35.264-14.272-12.949333-7.061333-23.210667-16.768-31.189333-29.205333-10.474667-16.298667-16.192-34.069333-18.154667-53.205333-1.194667-11.541333-2.538667-23.061333-3.648-34.602667-1.386667-14.357333-0.085333-28.650667 1.898667-42.858667 2.432-17.472 5.162667-34.922667 7.786667-52.373333 0.533333-3.541333-0.426667-7.146667 0.64-10.666667 0.256-0.810667 0.448-1.621333 0.981333-2.325333 0.384-0.512 1.386667-1.024 0.938667-1.621333-0.512-0.704-1.706667-1.152-2.517334-0.746667-3.882667 1.898667-8.704 0.618667-12.266666 3.84-1.045333 0.938667-2.816 1.173333-4.288 1.557333-2.538667 0.661333-4.501333 2.069333-6.506667 3.776-2.752 2.346667-6.272 3.584-9.92 3.946667-1.898667 0.170667-3.712 0.362667-5.376 1.301333-4.053333 2.304-8.938667 2.858667-12.544 6.144-0.896 0.810667-2.474667 0.213333-3.754667 0.298667-0.746667 0.064-1.770667-0.128-1.941333 0.746667-0.128 0.64 0.085333 1.578667 0.768 2.048 4.458667 3.136 7.36 7.914667 11.861333 11.050666 3.072 2.154667 3.648 9.557333 1.28 14.293334-2.88 5.717333-5.44 11.584-7.893333 17.472-4.778667 11.52-10.986667 22.336-16.490667 33.493333-3.178667 6.464-7.082667 12.437333-11.477333 18.133333-4.8 6.229333-9.045333 12.821333-13.077333 19.562667a382.698667 382.698667 0 0 1-23.061334 34.133333 54.997333 54.997333 0 0 1-6.165333 6.826667c-12.394667 11.733333-23.637333 24.618667-36.138667 36.245333-9.066667 8.405333-17.472 17.536-27.413333 24.981334-8.32 6.250667-17.365333 11.072-27.306667 14.272-1.984 0.64-3.008 0.021333-3.968-1.429334-1.792-2.709333-0.490667-6.741333 1.557334-9.28 4.416-5.482667 11.306667-8.597333 14.101333-15.744 1.877333-4.778667 5.952-8.256 9.92-11.562666 1.386667-1.152 2.602667-2.389333 3.178667-4.181334 0.533333-1.6 1.834667-2.645333 3.2-3.52 4.586667-2.965333 7.466667-7.232 9.728-12.117333 1.301333-2.816 3.968-4.736 5.696-7.338667 6.954667-10.581333 16.085333-19.477333 23.381333-29.76 3.712-5.226667 8.085333-10.090667 10.346667-16.405333 1.514667-4.224 4.608-7.808 7.104-11.605333 4.608-7.061333 7.914667-14.826667 11.626666-22.357334 3.584-7.274667 6.890667-14.677333 10.922667-21.696 3.882667-6.762667 5.610667-14.357333 8.725333-21.397333 3.008-6.826667 5.397333-13.930667 9.514667-20.288 1.088-1.685333 1.322667-3.968 1.728-6.016 0.213333-1.109333-0.384-2.090667-1.472-2.730667-1.216-0.704-2.24-0.298667-3.370667 0.256-8.277333 4.074667-16.277333 8.682667-24.853333 12.181334-1.877333 0.768-3.861333 0.64-5.802667 0.789333-14.741333 1.216-27.328-3.605333-37.994666-13.717333a10.581333 10.581333 0 0 1-1.045334-1.130667c-2.730667-3.242667-1.92-4.821333 1.92-6.464 6.421333-2.752 13.504-2.282667 19.925334-4.864 9.664-3.882667 19.072-8.298667 28.522666-12.693333 13.525333-6.293333 27.178667-12.309333 40.341334-19.349334 5.888-3.157333 12.053333-5.653333 18.176-8.149333 11.541333-4.714667 22.528-10.773333 34.474666-14.506667 2.154667-0.661333 3.925333-2.261333 5.994667-3.285333 2.922667-1.450667 6.165333-1.685333 9.152-2.901333 1.984-0.810667 3.84-1.6 5.568-2.858667 1.792-1.301333 4.053333-2.112 6.144-2.218667 4.8-0.234667 8.469333-2.730667 12.266667-5.098666 0.746667-0.469333 1.429333-0.917333 2.325333-0.832 6.336 0.469333 11.797333-3.178667 18.517333-3.562667z" p-id="2277"></path>
    <path d="M408.533333 607.68c0.277333 15.872 0.768 30.378667-0.277333 44.842667-0.405333 5.525333-1.877333 10.901333-3.221333 16.298666-2.026667 8.170667-3.754667 16.426667-6.698667 24.362667-1.088 2.965333-2.325333 5.866667-4.309333 8.384-4.224 5.397333-10.197333 6.293333-15.786667 2.304-5.44-3.882667-8.725333-9.493333-11.84-15.210667-1.6-2.922667-2.944-5.973333-4.416-8.938666-0.32-0.64-0.512-1.216-0.362667-1.941334 0.554667-2.709333-0.917333-4.736-3.690666-5.034666-3.242667-0.362667-6.464 0.149333-9.685334 0.490666-8.042667 0.874667-16.170667 1.258667-24.149333 2.538667-10.837333 1.728-21.269333 5.226667-31.573333 8.96-2.24 0.810667-4.650667 0.96-6.784 2.176-2.112 1.216-3.84 2.645333-4.8 5.034667-1.792 4.458667-5.888 5.781333-10.048 6.293333-4.970667 0.618667-9.386667-0.810667-13.162667-4.565333-8.682667-8.661333-9.088-9.962667-7.466667-22.549334 0.405333-3.178667 0.106667-6.592-0.106666-9.813333-1.28-20.181333 0.533333-40.042667 4.970666-59.712 0.426667-1.856 0.405333-3.733333 0.405334-5.589333 0.085333-11.008 0.597333-21.973333 1.770666-32.938667 0.768-7.061333 1.429333-14.165333 0.810667-21.354667-1.28-15.104-0.96-30.272-0.362667-45.354666 0.682667-17.621333-0.554667-35.072-2.410666-52.544-0.64-5.909333-0.96-11.904-0.768-17.856 0.192-5.994667-2.581333-9.706667-7.552-12.202667-0.938667-0.469333-1.728-1.002667-2.517334-1.642667-2.112-1.685333-4.224-3.2-7.061333-3.776-2.538667-0.533333-4.608-2.496-6.485333-4.330666-1.642667-1.6-3.157333-3.328-4.672-5.056-2.005333-2.282667-1.066667-8.981333 1.450666-11.306667 4.693333-4.309333 10.112-5.610667 16.234667-3.968 0.917333 0.256 1.813333 0.448 2.752 0.384 5.696-0.384 11.178667 0.96 14.890667 5.141333 5.184 5.845333 12.117333 5.184 18.453333 5.845334 9.024 0.938667 17.962667-1.472 26.837333-3.093334 22.549333-4.096 45.077333-8.448 67.669334-12.288 9.28-1.578667 18.133333-0.021333 25.706666 6.4 8.234667 6.997333 15.850667 14.485333 21.312 23.957334 1.194667 2.069333 1.621333 4.053333 0.704 6.293333-0.213333 0.533333-0.533333 1.173333-0.448 1.685333 1.173333 6.506667-3.754667 9.450667-7.701333 12.693334-2.261333 1.856-3.221333 4.010667-3.605333 6.592-0.234667 1.536-0.341333 2.901333-1.429334 4.202666-1.130667 1.365333-1.536 3.093333-1.578666 4.992-0.192 11.264 1.258667 22.506667 0.938666 33.770667-0.64 22.762667 2.197333 45.504 0.490667 68.266667-0.597333 8.042667-1.258667 16.106667-1.472 24.170666-0.234667 12.16 1.386667 24.234667 1.045333 34.986667z m-46.165333-86.549333c0.106667-1.557333-1.045333-2.922667 0.298667-4.245334 2.474667-2.389333 3.050667-5.461333 2.773333-8.725333-0.490667-5.866667-0.874667-11.754667-1.706667-17.578667-2.581333-18.218667-1.6-36.416 0.021334-54.613333 0.554667-6.144 2.389333-12.032 3.349333-18.090667 1.258667-8-2.666667-12.309333-10.709333-11.904-6.485333 0.32-12.821333 1.834667-19.157334 3.114667-13.354667 2.688-26.837333 4.885333-39.402666 10.645333-3.392 1.557333-5.504 3.626667-5.226667 6.784 0.597333 6.72-0.064 13.482667 0.533333 20.202667 1.813333 20.672 2.197333 41.386667 2.581334 62.122667 0.064 3.178667 0 6.144 1.877333 9.024 0.768 1.173333 1.301333 1.493333 2.410667 1.450666 8.064-0.256 15.765333-2.666667 23.637333-4.074666 4.8-0.853333 9.514667-1.578667 14.378667-0.682667 3.946667 0.725333 7.765333 1.898667 11.584 3.157333 2.517333 0.832 5.12 1.749333 7.744 1.28 2.261333-0.362667 3.818667 0 5.013333 2.133334z m1.024 12.544c-1.066667 2.389333-2.709333 4.096-4.650667 5.674666-3.456 2.794667-7.573333 4.48-11.221333 6.869334-3.754667 2.474667-7.530667 3.050667-11.562667 1.92-2.816-0.789333-5.098667-0.042667-7.509333 1.045333-3.733333 1.685333-7.658667 2.88-11.669333 3.754667-4.330667 0.96-8.768 1.429333-13.034667 2.624-5.696 1.578667-6.869333 2.474667-6.336 8.192 0.32 3.477333 0.768 6.954667 1.045333 10.432 1.877333 23.637333 0.96 47.210667-2.304 70.698666-0.298667 2.154667 0.234667 2.453333 2.197334 2.133334 2.218667-0.362667 4.117333-1.856 6.229333-1.984 6.677333-0.362667 13.184-2.197333 19.904-2.24 3.626667-0.021333 7.274667-0.810667 10.944-0.96 6.378667-0.277333 12.8-0.128 19.157333-1.066667 7.701333-1.130667 10.965333-4.373333 11.882667-12.074667 0.896-7.552 1.002667-15.146667 0.32-22.741333-1.130667-12.821333-2.218667-25.664-2.218667-38.549333 0-5.12 0.042667-10.261333-0.490666-15.338667-0.426667-3.989333-0.618667-7.872-0.042667-11.882667 0.341333-2.069333 0.682667-4.373333-0.64-6.506666z" p-id="2278"></path>
</svg>